<?xml version="1.0" encoding="UTF-8" standalone="no"?>
<!DOCTYPE svg PUBLIC "-//W3C//DTD SVG 1.1//EN" "http://www.w3.org/Graphics/SVG/1.1/DTD/svg11.dtd">
<!-- Created with Vectornator (http://vectornator.io/) -->
<svg height="100%" stroke-miterlimit="10" style="fill-rule:nonzero;clip-rule:evenodd;stroke-linecap:round;stroke-linejoin:round;" version="1.1" viewBox="527.596 197.908 105.746 105.746" width="100%" xml:space="preserve" xmlns="http://www.w3.org/2000/svg" xmlns:vectornator="http://vectornator.io" xmlns:xlink="http://www.w3.org/1999/xlink">
<defs/>
<clipPath id="ArtboardFrame">
<rect height="105.746" width="105.746" x="527.596" y="197.908"/>
</clipPath>
<g clip-path="url(#ArtboardFrame)" id="Layer" vectornator:layerName="Layer">
<path d="M619.34 240.259L619.093 239.915L619.305 239.25L619.86 239.351L620.375 239.647L620.45 239.598L620.274 240.061L619.816 240.29L619.34 240.259ZM622.266 243.383L622.054 242.647L617.555 239.726L616.467 239.66L615.498 240.726L615.013 242.052L615.414 242.784L622.266 243.383ZM553.262 239.867L552.746 241.731L554.425 239.823L554.561 239.228L553.839 238.946L553.262 239.867ZM554.279 236.862L554.275 236.963L551.393 238.32L555.037 237.598L554.279 236.862ZM556.46 240.475L556.817 240.193L557.13 239.47L557.073 239.567L557.324 238.721L556.641 238.62L556.117 238.752L555.769 239.118L555.597 239.726L556.055 240.316C556.055 240.316 556.46 240.475 556.46 240.475ZM614.013 227.499L613.497 227.213L611.193 227.072L610.224 226.252L611.396 221.93L605.663 231.209L604.156 232.337L606.95 233.399C606.95 233.399 614.013 227.499 614.013 227.499ZM619.419 253.217L625.125 262.285L620.521 253.715L619.419 253.217ZM633.342 250.781C633.342 279.984 609.673 303.654 580.474 303.654C551.274 303.654 527.596 279.984 527.596 250.781C527.596 221.577 551.274 197.908 580.474 197.908C609.673 197.908 633.342 221.577 633.342 250.781ZM594.877 229.424L594.895 233.923L595.811 236.227L597.975 235.725L598.094 234.236L594.877 229.424ZM598.089 221.361L597.323 221.053L595.684 221.419L594.119 221.075L594.053 223.018L594.225 223.445L596.336 223.648L597.688 222.595L598.089 221.361ZM566.744 207.354L569.392 207.249L574.525 203.891C572.886 204.098 571.283 204.385 569.701 204.75L568.758 205.997L566.744 207.354ZM563.462 208.896L565.202 210.28L567.432 210.58L568.811 209.253L567.982 209.13L564.541 207.174L563.545 206.98L563.462 208.896ZM558.928 208.685L559.117 208.936L560.087 208.879L561.135 208.429L561.712 207.724L561.505 207.425C560.629 207.804 559.783 208.253 558.928 208.685ZM556.399 214.038L557.694 214.228L558.624 213.135L558.879 211.862L558.188 211.505L556.403 213.47L556.399 214.038ZM546.926 217.665L549.252 218.991L552.671 217.413L555.337 214.545L555.403 211.963L553.099 212.417L552.865 212.333C551.244 213.488 549.706 214.765 548.243 216.114L548.499 216.369L547.097 217.339C547.097 217.339 546.926 217.665 546.926 217.665ZM533.91 255.024L532.888 253.27C532.888 253.429 532.905 253.588 532.914 253.746L533.875 255.892L533.91 255.024ZM580.857 275.561L578.473 273.794L571.639 271.767L567.639 266.524L562.708 264.651L551.129 264.259L547.613 258.328L546.688 258.218L543.802 259.606L542.766 258.492L542.564 256.866L542.92 255.531L544.736 253.068L546.895 251.869L552.275 252.869L553.063 255.13L554.729 255.522L554.698 252.072L559.21 245.507L569.168 239.959L567.722 239.779L565.149 237.88L571.692 236.02L571.926 236.602L571.838 237.153L571.432 237.681L570.714 238.188L571.234 238.884L572.829 238.964L574.12 238.479L569.829 228.107L569.229 228.186L564.004 225.67L562.827 226.803L559.783 234.597L558.311 233.28L554.826 231.676L552.676 229.226L555.209 225.419L562.955 219.414L564.101 216.18L567.67 218.436L568.234 219.674L564.48 222.74L568.216 225.089L569.031 224.653L569.414 224.679L571.001 222.168L570.648 221.762L572.829 219.37L571.15 216.484L566.815 212.791L569.11 212.382L568.987 211.782L567.731 211.496L564.127 213.536L565.29 211.633L562.858 212.399L562.431 218.334L560.51 219.652L559.144 218.37L562.695 211.752L562.409 211.465L562.083 211.329L561.712 211.329L561.303 211.483L555.654 219.352L555.764 218.876L556.341 217.788L556.126 217.347L555.165 217.907L547.04 219.581L545.569 218.762C537.264 227.647 532.687 239.381 532.782 251.543C532.782 251.693 532.804 251.843 532.808 252.001L532.83 251.926L534.007 252.363L538.303 259.659L551.23 265.361L552.997 267.317L553.037 269.912L551.424 273.767L551.336 275.882L556.941 286.726L557.108 292.736C560.131 294.45 563.343 295.86 566.735 296.886L572.6 289.374L577.812 285.527C577.812 285.527 580.857 275.561 580.857 275.561ZM561.325 222.577L560.884 221.943L560.452 221.837L558.827 223.873L559.117 224.181L561.1 224.19L561.726 223.798L561.325 222.577ZM581.174 226.842L594.608 215.219L597.763 206.773C592.144 204.571 586.156 203.46 580.121 203.499C579.302 203.508 578.5 203.591 577.689 203.64L577.068 203.975L575.799 205.799L575.552 207.011L576.041 207.905L579.496 208.354L580.496 215.034L578.782 219.057L578.372 222.009L579.46 225.128L581.174 226.842ZM626.191 263.541L626.562 263.316C627.606 259.329 628.201 255.16 628.17 250.843C628.136 247.836 627.823 244.838 627.236 241.889L626.98 241.369L627.073 241.021C625.603 234.326 622.699 228.028 618.56 222.564L618.26 222.688L616.529 220.916L617.163 220.722C615.661 218.943 614.033 217.275 612.29 215.73L610.836 215.638L608.179 216.779L601.213 226.23L601.539 227.459L604.813 229.975L604.813 231.271L595.613 238.052L595.679 238.928L596.424 240.171L596.675 241.299L592.696 242.881L592.388 244.93L592.683 247.437L586.589 259.417L586.329 264.731L590.872 267.409L598.376 267.383L601.76 268.348L608.201 289.947C617.091 283.578 623.525 274.35 626.425 263.805L626.191 263.541ZM619.776 247.155L612.638 245.216L611.92 244.344L612.061 246.419L611.876 246.577L606.289 240.744L606.28 240.788L605.381 241.004L605.232 240.788L605.505 241.911L607.708 243.524L607.875 244.7L607.443 245.423L607.126 245.657L606.725 245.802L604.624 242.497L601.464 242.515L594.877 247.406L603.522 247.089L607.43 250.631L609.294 251.283L619.666 249.203L619.776 247.155Z" fill="#929292" fill-rule="nonzero" opacity="1" stroke="none" vectornator:layerName="path 1"/>
</g>
</svg>
