<?xml version="1.0" encoding="UTF-8" standalone="no"?>
<!DOCTYPE svg PUBLIC "-//W3C//DTD SVG 1.1//EN" "http://www.w3.org/Graphics/SVG/1.1/DTD/svg11.dtd">
<!-- Created with Vectornator (http://vectornator.io/) -->
<svg height="100%" stroke-miterlimit="10" style="fill-rule:nonzero;clip-rule:evenodd;stroke-linecap:round;stroke-linejoin:round;" version="1.1" viewBox="367.413 197.197 107.168 107.168" width="100%" xml:space="preserve" xmlns="http://www.w3.org/2000/svg" xmlns:vectornator="http://vectornator.io" xmlns:xlink="http://www.w3.org/1999/xlink">
<defs/>
<clipPath id="ArtboardFrame">
<rect height="107.168" width="107.168" x="367.413" y="197.197"/>
</clipPath>
<g clip-path="url(#ArtboardFrame)" id="Layer" vectornator:layerName="Layer">
<path d="M424.923 255.273L424.923 271.571L411.509 257.961L411.509 242.355L427.504 242.355L440.239 255.273L424.923 255.273ZM473.532 289.236L473.532 304.365L457.216 304.365L431.629 278.019L431.629 262.167L446.606 262.167L473.532 289.236ZM425.182 282.771L440.239 297.823C434.394 299.797 428.821 301.065 420.926 301.065C390.347 301.061 367.413 278.658 367.413 248.838C367.413 219.166 390.347 197.197 420.926 197.197C451.648 197.197 474.582 219.309 474.582 248.838C474.582 258.305 472.246 267.039 468.076 274.554L451.889 257.921C452.605 254.991 452.965 251.984 452.96 248.968C452.96 229.807 438.904 215.357 421.256 215.357C403.601 215.357 388.892 229.807 388.892 248.968C388.892 268.129 403.761 282.905 421.252 282.905C423.699 282.905 424.204 282.98 425.182 282.771Z" fill="#333333" fill-rule="nonzero" opacity="1" stroke="none" vectornator:layerName="path"/>
</g>
</svg>
