<?xml version="1.0" encoding="UTF-8" standalone="no"?>
<!DOCTYPE svg PUBLIC "-//W3C//DTD SVG 1.1//EN" "http://www.w3.org/Graphics/SVG/1.1/DTD/svg11.dtd">
<!-- Created with Vectornator (http://vectornator.io/) -->
<svg height="100%" stroke-miterlimit="10" style="fill-rule:nonzero;clip-rule:evenodd;stroke-linecap:round;stroke-linejoin:round;" version="1.1" viewBox="575.125 462.713 103.707 81.4535" width="100%" xml:space="preserve" xmlns="http://www.w3.org/2000/svg" xmlns:vectornator="http://vectornator.io" xmlns:xlink="http://www.w3.org/1999/xlink">
<defs/>
<clipPath id="ArtboardFrame">
<rect height="81.4535" width="103.707" x="575.125" y="462.713"/>
</clipPath>
<g clip-path="url(#ArtboardFrame)" id="Layer" vectornator:layerName="Layer">
<g opacity="0.984615" vectornator:layerName="newspaper-svgrepo-com">
<path d="M676.374 462.713L589.347 462.713C587.991 462.713 586.876 463.814 586.876 465.184L586.876 475.042L577.596 475.042C576.239 475.042 575.125 476.143 575.125 477.285L575.125 536.041C575.125 540.715 578.737 544.166 583.169 544.166L670.787 544.166C675.219 544.166 678.832 540.715 678.832 536.27L678.832 465.184C678.832 463.828 677.731 462.713 676.374 462.713ZM583.183 539.224C581.464 539.224 580.067 538.002 580.067 536.041L580.067 479.903L661.547 479.984L661.547 536.27C661.547 537.371 661.776 538.257 662.179 539.211L583.183 539.211L583.183 539.224ZM673.903 536.27C673.903 537.989 672.506 539.211 670.801 539.211L669.592 539.211C667.873 539.211 666.476 537.989 666.476 536.27L666.476 477.513C666.476 476.143 665.375 475.042 664.005 475.042L591.818 475.042L591.818 467.669L673.917 467.669L673.917 536.27L673.903 536.27ZM654.147 487.371L587.48 487.371C586.795 487.371 586.245 487.921 586.245 488.606C586.245 489.291 586.795 489.842 587.48 489.842L654.161 489.842C654.846 489.842 655.396 489.291 655.396 488.606C655.383 487.921 654.832 487.371 654.147 487.371ZM619.538 497.255L587.48 497.255C586.795 497.255 586.245 497.806 586.245 498.491L586.245 520.758C586.245 521.443 586.795 521.993 587.48 521.993L619.538 521.993C620.223 521.993 620.774 521.443 620.774 520.758L620.774 498.491C620.76 497.806 620.21 497.255 619.538 497.255ZM618.302 519.522L588.703 519.522L588.703 499.726L618.289 499.726L618.289 519.522L618.302 519.522ZM654.134 526.869L629.409 526.869C628.724 526.869 628.174 527.419 628.174 528.104L628.174 534.859C628.174 535.544 628.724 536.095 629.409 536.095L654.134 536.095C654.819 536.095 655.37 535.544 655.37 534.859L655.37 528.104C655.37 527.419 654.819 526.869 654.134 526.869ZM652.912 533.624L630.645 533.624L630.645 529.353L652.912 529.353L652.912 533.624ZM629.476 518.273L643.309 518.273C643.981 518.273 644.518 517.723 644.518 517.038C644.518 516.353 643.981 515.802 643.309 515.802L629.476 515.802C628.805 515.802 628.268 516.353 628.268 517.038C628.268 517.723 628.805 518.273 629.476 518.273ZM654.174 500.975L629.476 500.975C628.805 500.975 628.268 501.526 628.268 502.211C628.268 502.896 628.805 503.446 629.476 503.446L654.174 503.446C654.846 503.446 655.383 502.896 655.383 502.211C655.383 501.526 654.832 500.975 654.174 500.975ZM654.174 505.918L629.476 505.918C628.805 505.918 628.268 506.468 628.268 507.153C628.268 507.838 628.805 508.389 629.476 508.389L654.174 508.389C654.846 508.389 655.383 507.838 655.383 507.153C655.383 506.468 654.832 505.918 654.174 505.918ZM654.174 510.86L629.476 510.86C628.805 510.86 628.268 511.41 628.268 512.095C628.268 512.78 628.805 513.331 629.476 513.331L654.174 513.331C654.846 513.331 655.383 512.78 655.383 512.095C655.383 511.41 654.832 510.86 654.174 510.86ZM601.246 531.838L587.4 531.838C586.728 531.838 586.191 532.388 586.191 533.073C586.191 533.758 586.728 534.309 587.4 534.309L601.246 534.309C601.918 534.309 602.455 533.758 602.455 533.073C602.468 532.388 601.918 531.838 601.246 531.838ZM612.125 526.895L587.4 526.895C586.728 526.895 586.191 527.446 586.191 528.131C586.191 528.816 586.728 529.367 587.4 529.367L612.125 529.367C612.796 529.367 613.333 528.816 613.333 528.131C613.347 527.446 612.796 526.895 612.125 526.895Z" fill="#929292" fill-rule="nonzero" opacity="1" stroke="none" vectornator:layerName="path"/>
</g>
</g>
</svg>
