<?xml version="1.0" encoding="UTF-8" standalone="no"?>
<!DOCTYPE svg PUBLIC "-//W3C//DTD SVG 1.1//EN" "http://www.w3.org/Graphics/SVG/1.1/DTD/svg11.dtd">
<!-- Created with Vectornator (http://vectornator.io/) -->
<svg height="100%" stroke-miterlimit="10" style="fill-rule:nonzero;clip-rule:evenodd;stroke-linecap:round;stroke-linejoin:round;" version="1.1" viewBox="468.321 453.296 100.288 100.288" width="100%" xml:space="preserve" xmlns="http://www.w3.org/2000/svg" xmlns:vectornator="http://vectornator.io" xmlns:xlink="http://www.w3.org/1999/xlink">
<defs/>
<clipPath id="ArtboardFrame">
<rect height="100.288" width="100.288" x="468.321" y="453.296"/>
</clipPath>
<g clip-path="url(#ArtboardFrame)" id="Layer" vectornator:layerName="Layer">
<g opacity="1" vectornator:layerName="g">
<path d="M566.045 552.372C564.957 553.17 563.654 553.582 562.337 553.582C561.706 553.582 561.07 553.486 560.454 553.292L532.619 544.503L506.342 553.262C505.7 553.477 505.031 553.584 504.36 553.584C503.627 553.584 502.892 553.455 502.194 553.197L472.421 542.228C469.958 541.32 468.321 538.973 468.321 536.347L468.321 459.564C468.321 457.567 469.272 455.689 470.884 454.507C471.972 453.711 473.272 453.296 474.589 453.296C475.222 453.296 475.859 453.393 476.475 453.587L504.362 462.394L532.248 453.587C532.862 453.393 533.497 453.296 534.133 453.296C534.804 453.296 535.473 453.402 536.117 453.617L564.323 463.019C566.882 463.873 568.608 466.267 568.608 468.966L568.608 547.316C568.608 549.312 567.657 551.191 566.045 552.372ZM561.394 550.302C561.699 550.399 562.018 550.448 562.339 550.448C563.005 550.448 563.663 550.233 564.194 549.843C564.995 549.256 565.474 548.311 565.474 547.316L565.474 508.006C565.108 508.062 564.727 508.136 564.327 508.213C562.499 508.578 561.352 509.029 559.971 510.635C558.341 512.497 559.289 515.509 557.494 517.082C556.801 517.674 556.137 517.872 555.466 517.872C554.175 517.873 552.862 517.138 551.274 517.082C548.664 516.966 546.868 515.897 544.702 515.897C544.033 515.897 543.328 515.998 542.552 516.262C540.449 516.983 539.644 518.63 537.572 519.492C536.905 519.774 536.295 519.948 535.703 520.078L535.703 529.781C537.467 529.153 539.041 528.57 541.305 528.352C542.545 528.228 543.546 527.756 544.549 527.756C545.113 527.756 545.678 527.907 546.285 528.352C548.164 529.753 549.778 532.304 548.78 534.789C548.131 536.427 546.569 535.811 545.653 537.21C544.672 538.752 545.138 540.161 544.423 542.033C544.868 543.406 545.627 544.371 546.047 545.457L561.394 550.302ZM541.495 540.916C541.669 540.457 541.723 539.996 541.791 539.413C541.91 538.395 542.074 536.997 543.007 535.529C543.952 534.085 545.194 533.546 545.94 533.26C545.964 532.431 545.157 531.437 544.455 530.898C544.265 530.925 543.923 531.009 543.663 531.075C543.109 531.216 542.419 531.389 541.612 531.47C539.804 531.644 538.541 532.094 536.944 532.666C536.559 532.804 536.129 532.951 535.7 533.097L535.7 542.19L541.908 544.15C541.745 543.791 541.578 543.426 541.44 543C541.22 542.32 541.239 541.584 541.495 540.916ZM532.567 520.341C531.717 520.324 530.842 520.279 529.858 520.279C529.538 520.279 529.209 520.285 528.865 520.299C528.68 520.307 528.5 520.31 528.321 520.31C526.586 520.31 525.259 519.976 523.775 519.976C523.043 519.976 522.275 520.058 521.398 520.299C519.376 520.86 517.698 520.594 516.416 522.7C514.929 525.199 515.005 528.212 516.416 530.773C517.896 533.421 520.126 532.819 522.645 533.184C523.109 533.247 523.546 533.277 523.966 533.277C527.095 533.277 529.159 531.668 532.566 530.782L532.566 520.341L532.567 520.341ZM517.592 484.296C516.761 482.274 515.227 481.853 513.508 481.853C513.213 481.853 512.914 481.865 512.612 481.884C510.766 481.992 509.935 483.305 508.256 484.296C506.656 485.239 505.551 486.53 504.363 487.547L504.363 507.887C505.534 506.306 505.993 504.695 507.624 503.639C508.257 503.228 508.86 503.084 509.45 503.084C510.861 503.084 512.198 503.913 513.69 503.913C514.143 503.913 514.611 503.836 515.099 503.637C517.601 502.594 519.729 501.948 520.693 498.783C521.324 496.746 521.341 495.185 520.693 493.162C520.053 491.117 518.181 491.225 517.592 489.136C517.067 487.353 518.265 485.976 517.592 484.296ZM471.455 523.566C472.826 523.577 474.153 523.67 475.903 523.759C478.089 523.88 479.656 525.038 481.449 525.038C482.051 525.038 482.677 524.908 483.362 524.564C485.457 523.543 485.847 521.316 487.726 519.743C490.563 517.364 492.814 517.718 495.817 515.705C498.054 514.202 499.606 512.95 501.228 511.339L501.228 489.072C501.079 489.092 500.945 489.133 500.789 489.139C500.206 489.157 499.676 489.225 499.183 489.225C498.423 489.225 497.739 489.066 497.056 488.323C495.876 487.052 496.892 484.897 495.818 483.5C495.038 482.462 494.162 482.14 493.208 482.14C492.28 482.14 491.279 482.442 490.215 482.693C488.077 483.18 487.371 485.396 485.243 485.913C484.445 486.104 483.807 486.258 483.16 486.258C482.645 486.258 482.124 486.16 481.508 485.913C478.863 484.836 478.423 481.856 477.143 478.658C476.096 476.009 477.135 473.19 475.281 471.424C474.38 470.564 473.517 470.299 472.583 470.299C472.221 470.299 471.845 470.34 471.456 470.4L471.456 523.566L471.455 523.566ZM473.506 539.286L501.228 549.5L501.228 515.584C500.128 516.505 498.965 517.366 497.564 518.306C495.868 519.443 494.4 519.961 493.106 520.418C491.796 520.879 490.851 521.213 489.74 522.145C489.27 522.538 488.9 523.096 488.469 523.745C487.675 524.942 486.686 526.432 484.735 527.383C483.699 527.902 482.583 528.173 481.447 528.173C480.034 528.173 478.857 527.77 477.821 527.415C477.057 527.153 476.395 526.926 475.729 526.89L474.466 526.819C473.316 526.757 472.392 526.706 471.455 526.7L471.455 536.347C471.455 537.653 472.277 538.835 473.506 539.286ZM475.534 456.576C475.226 456.478 474.908 456.43 474.589 456.43C473.918 456.43 473.277 456.64 472.736 457.036C471.934 457.624 471.455 458.569 471.455 459.564L471.455 467.248C471.823 467.205 472.194 467.162 472.581 467.162C474.448 467.162 476.04 467.814 477.444 469.154C479.412 471.026 479.57 473.411 479.689 475.151C479.747 476.03 479.804 476.859 480.057 477.501C480.339 478.205 480.587 478.91 480.824 479.59C481.579 481.745 481.983 482.718 482.688 483.006C482.967 483.119 483.091 483.119 483.159 483.119C483.441 483.119 483.936 483 484.508 482.862C484.738 482.806 485.128 482.433 485.54 482.038C486.408 481.209 487.596 480.071 489.516 479.634L490.085 479.496C491.02 479.266 492.079 479.004 493.205 479.004C495.265 479.004 497.034 479.907 498.321 481.615C499.44 483.073 499.49 484.709 499.526 485.792C499.529 485.877 499.532 485.976 499.535 486.076C499.623 486.071 499.711 486.063 499.802 486.057C500.088 486.035 500.384 486.016 500.695 486.007C500.88 485.999 501.054 485.965 501.228 485.9L501.228 464.691L475.534 456.576ZM505.306 465.382L504.362 465.68L504.362 483.304C505.023 482.719 505.762 482.127 506.665 481.594C507.041 481.372 507.4 481.093 507.778 480.795C508.806 479.988 510.214 478.885 512.428 478.755C512.787 478.731 513.151 478.719 513.508 478.719C516.945 478.719 519.293 480.193 520.491 483.103C521.193 484.854 520.903 486.358 520.71 487.353C520.639 487.713 520.561 488.124 520.6 488.256L520.627 488.337C520.674 488.4 520.915 488.588 521.089 488.727C521.835 489.313 523.081 490.296 523.686 492.228C524.51 494.806 524.513 497.049 523.687 499.713C522.366 504.046 519.308 505.3 516.849 506.307L516.305 506.531C515.457 506.878 514.585 507.048 513.69 507.048C512.479 507.048 511.444 506.741 510.617 506.494C510.161 506.357 509.689 506.218 509.45 506.218C509.418 506.22 509.39 506.229 509.327 506.268C508.876 506.561 508.581 507.039 508.058 507.929C507.621 508.675 507.076 509.6 506.262 510.526C505.582 511.298 504.962 511.978 504.362 512.608L504.362 550.45C504.7 550.45 505.032 550.396 505.352 550.288L531.627 541.53L532.567 541.217L532.567 534.063C531.778 534.314 531.033 534.592 530.276 534.894C528.423 535.64 526.505 536.411 523.968 536.411C523.397 536.411 522.81 536.372 522.222 536.29C521.763 536.224 521.302 536.195 520.815 536.166C518.765 536.043 515.669 535.855 513.684 532.302C511.686 528.678 511.704 524.495 513.726 521.097C515.443 518.271 517.847 517.822 519.439 517.522C519.836 517.449 520.21 517.378 520.563 517.281C521.63 516.986 522.681 516.844 523.778 516.844C524.67 516.844 525.461 516.935 526.226 517.021C526.933 517.101 527.6 517.178 528.324 517.178C528.459 517.178 528.598 517.174 528.739 517.17C529.129 517.152 529.501 517.146 529.861 517.146C530.513 517.146 531.121 517.168 531.706 517.187C532.002 517.198 532.284 517.203 532.571 517.209L532.571 456.775L505.306 465.382ZM563.331 465.993L535.701 456.784L535.701 516.839C535.915 516.77 536.126 516.7 536.356 516.604C536.911 516.374 537.341 516.012 537.934 515.51C538.803 514.778 539.882 513.866 541.535 513.301C542.596 512.94 543.629 512.765 544.702 512.765C546.199 512.765 547.492 513.113 548.632 513.42C549.568 513.672 550.45 513.909 551.414 513.953C552.562 513.993 553.554 514.269 554.352 514.49C554.742 514.597 555.181 514.719 555.411 514.738C555.533 514.515 555.646 513.81 555.721 513.338C555.939 511.992 556.235 510.146 557.613 508.572C559.521 506.351 561.366 505.61 563.713 505.141L563.876 505.109C564.395 505.011 564.929 504.924 565.476 504.858L565.476 468.966C565.474 467.615 564.613 466.419 563.331 465.993Z" fill="#8a8a8a" fill-rule="nonzero" opacity="1" stroke="none" vectornator:layerName="path"/>
<path d="M554.985 491.966C553.922 492.292 552.92 492.599 551.835 492.599C550.814 492.599 549.891 492.322 549.008 491.748C548.018 491.095 547.733 490.288 547.667 489.728C547.493 488.216 548.613 487.029 549.8 485.772C550.593 484.932 551.79 483.663 551.558 483.059C551.407 482.658 550.953 482.439 550.024 482.067C548.869 481.604 547.12 480.906 546.742 478.822C546.529 477.666 546.793 476.603 547.502 475.751C548.501 474.555 550.309 473.897 552.6 473.897C554.935 473.897 557.23 474.571 558.755 475.709C561.345 477.696 562.339 480.598 561.707 484.332C561.077 488.141 558.786 490.771 554.985 491.966ZM556.864 478.206C555.908 477.492 554.233 477.03 552.6 477.03C551.16 477.03 550.213 477.393 549.909 477.757C549.856 477.821 549.764 477.931 549.823 478.258C549.881 478.57 550.122 478.73 551.186 479.154C552.307 479.603 553.841 480.217 554.488 481.947C555.417 484.38 553.487 486.425 552.077 487.92C551.704 488.315 551.183 488.867 550.925 489.241C551.747 489.675 552.686 489.392 554.143 488.943C556.716 488.133 558.178 486.458 558.616 483.813C559.058 481.204 558.512 479.471 556.864 478.206Z" fill="#8a8a8a" fill-rule="nonzero" opacity="1" stroke="none" vectornator:layerName="path"/>
</g>
</g>
</svg>
