<?xml version="1.0" encoding="UTF-8" standalone="no"?>
<!DOCTYPE svg PUBLIC "-//W3C//DTD SVG 1.1//EN" "http://www.w3.org/Graphics/SVG/1.1/DTD/svg11.dtd">
<!-- Created with Vectornator (http://vectornator.io/) -->
<svg height="100%" stroke-miterlimit="10" style="fill-rule:nonzero;clip-rule:evenodd;stroke-linecap:round;stroke-linejoin:round;" version="1.1" viewBox="481.334 348.685 74.2605 85.6577" width="100%" xml:space="preserve" xmlns="http://www.w3.org/2000/svg" xmlns:vectornator="http://vectornator.io" xmlns:xlink="http://www.w3.org/1999/xlink">
<defs/>
<clipPath id="ArtboardFrame">
<rect height="85.6577" width="74.2605" x="481.334" y="348.685"/>
</clipPath>
<g clip-path="url(#ArtboardFrame)" id="Layer" vectornator:layerName="Layer">
<path d="M483.56 349.219C482.907 349.575 482.373 350.109 481.958 350.822C481.542 351.534 481.334 365.068 481.334 391.425C481.334 417.781 481.453 431.226 481.69 431.76C481.928 432.295 482.225 432.74 482.581 433.096C482.937 433.452 483.382 433.749 483.916 433.986C484.451 434.224 495.967 434.343 518.464 434.343C540.962 434.343 552.478 434.224 553.013 433.986C553.547 433.749 553.992 433.452 554.348 433.096C554.704 432.74 555.001 432.295 555.239 431.76C555.476 431.226 555.595 417.811 555.595 391.514C555.595 365.217 555.476 351.801 555.239 351.267C555.001 350.733 554.675 350.258 554.259 349.842C553.844 349.427 553.428 349.13 553.013 348.952C552.597 348.774 541.081 348.685 518.464 348.685C495.848 348.685 484.213 348.863 483.56 349.219ZM518.464 351.534C540.487 351.534 551.677 351.653 552.033 351.89C552.389 352.128 552.567 353.879 552.567 357.144C552.567 358.776 552.567 360.409 552.567 362.041C552.003 361.744 551.439 361.447 550.876 361.151C549.748 360.557 548.442 360.26 546.958 360.26C545.474 360.26 544.168 360.557 543.04 361.151C541.912 361.744 541.081 362.338 540.547 362.931C540.012 363.525 539.597 364.119 539.3 364.712C539.003 365.306 538.766 366.256 538.588 367.562C538.41 368.868 538.41 370.084 538.588 371.212C538.766 372.34 539.152 373.794 539.745 375.575C540.339 377.356 540.933 378.781 541.526 379.849C541.823 380.384 542.12 380.918 542.417 381.452C541.289 381.452 540.161 381.452 539.033 381.452C536.777 381.452 534.878 381.719 533.334 382.253C531.791 382.788 530.366 383.708 529.06 385.014C527.754 386.32 526.894 387.447 526.478 388.397C526.063 389.347 525.796 390.148 525.677 390.801C525.558 391.454 525.499 392.167 525.499 392.938C525.499 393.71 525.647 394.66 525.944 395.788C526.241 396.916 526.656 397.925 527.191 398.815C527.725 399.706 528.289 400.448 528.882 401.041C529.476 401.635 530.366 402.258 531.554 402.911C532.741 403.564 534.492 404.069 536.807 404.425C539.122 404.781 540.606 405.137 541.259 405.493C541.912 405.849 542.565 406.384 543.218 407.096C543.871 407.808 544.405 408.699 544.821 409.767C545.236 410.836 545.444 411.934 545.444 413.062C545.444 414.19 545.355 415.11 545.177 415.822C544.999 416.534 544.672 417.336 544.197 418.226C543.723 419.117 543.04 420.007 542.149 420.897C541.259 421.788 540.161 422.53 538.855 423.123C537.549 423.717 534.581 424.043 529.951 424.103C527.636 424.133 525.321 424.162 523.006 424.192C523.391 423.45 523.777 422.708 524.163 421.966C524.935 420.482 525.617 418.523 526.211 416.089C526.805 413.655 527.012 411.756 526.834 410.39C526.656 409.025 526.27 407.868 525.677 406.918C525.083 405.968 524.49 405.256 523.896 404.781C523.302 404.306 522.679 403.92 522.026 403.623C521.373 403.327 520.453 403.119 519.266 403C518.079 402.881 517.218 402.881 516.684 403C516.149 403.119 515.496 403.356 514.725 403.712C513.953 404.069 513.27 404.514 512.677 405.048C512.083 405.582 511.579 406.176 511.163 406.829C510.748 407.482 510.421 408.224 510.184 409.055C509.946 409.886 509.857 410.925 509.917 412.171C509.976 413.418 510.302 415.08 510.896 417.158C511.49 419.235 512.143 420.957 512.855 422.322C513.567 423.687 514.369 424.785 515.259 425.617C516.149 426.448 516.773 426.922 517.129 427.041C517.485 427.16 520.691 427.219 526.745 427.219C532.8 427.219 536.421 427.071 537.608 426.774C538.796 426.477 539.923 426.032 540.992 425.438C542.06 424.845 543.129 424.014 544.197 422.945C545.266 421.877 546.156 420.63 546.869 419.206C547.581 417.781 548.026 416.623 548.204 415.733C548.382 414.843 548.471 413.922 548.471 412.973C548.471 412.023 548.353 411.073 548.115 410.123C547.878 409.174 547.492 408.224 546.958 407.274C546.423 406.324 545.622 405.374 544.554 404.425C543.485 403.475 542.357 402.763 541.17 402.288C539.983 401.813 538.618 401.516 537.074 401.397C535.531 401.279 534.225 400.952 533.156 400.418C532.088 399.884 531.138 399.053 530.307 397.925C529.476 396.797 528.971 395.936 528.793 395.342C528.615 394.749 528.526 393.947 528.526 392.938C528.526 391.929 528.793 390.801 529.328 389.555C529.862 388.308 530.574 387.299 531.465 386.527C532.355 385.756 533.245 385.221 534.136 384.925C535.026 384.628 537.579 384.45 541.793 384.39C546.008 384.331 548.531 384.034 549.362 383.5C550.193 382.966 550.935 382.224 551.588 381.274C551.914 380.799 552.241 380.324 552.567 379.849C552.567 388.338 552.567 396.826 552.567 405.315C552.567 422.292 552.478 430.87 552.3 431.048C552.122 431.226 540.844 431.315 518.464 431.315C496.085 431.315 484.807 431.226 484.629 431.048C484.451 430.87 484.332 417.781 484.273 391.781C484.213 365.781 484.391 352.573 484.807 352.157C485.222 351.742 496.442 351.534 518.464 351.534ZM490.595 359.37C490.12 359.845 489.882 360.32 489.882 360.794C489.882 361.269 490.12 361.744 490.595 362.219C491.069 362.694 497.985 362.931 511.341 362.931C524.697 362.931 531.613 362.664 532.088 362.13C532.563 361.596 532.741 361.032 532.622 360.438C532.503 359.845 532.236 359.399 531.821 359.103C531.405 358.806 524.549 358.657 511.252 358.657C497.955 358.657 491.069 358.895 490.595 359.37ZM490.773 373.438C490.298 373.794 490.031 374.269 489.971 374.863C489.912 375.457 490.031 375.961 490.327 376.377C490.624 376.792 490.951 377.059 491.307 377.178C491.663 377.297 498.311 377.356 511.252 377.356C524.193 377.356 530.901 377.267 531.375 377.089C531.85 376.911 532.207 376.614 532.444 376.199C532.681 375.783 532.741 375.279 532.622 374.685C532.503 374.091 532.236 373.646 531.821 373.349C531.405 373.052 524.579 372.904 511.341 372.904C498.104 372.904 491.248 373.082 490.773 373.438ZM490.773 387.685C490.298 388.041 490.031 388.516 489.971 389.11C489.912 389.703 490.031 390.208 490.327 390.623C490.624 391.039 490.921 391.306 491.218 391.425C491.515 391.543 495.818 391.603 504.129 391.603C512.439 391.603 516.802 391.514 517.218 391.336C517.633 391.158 517.96 390.831 518.197 390.356C518.435 389.881 518.494 389.377 518.375 388.842C518.257 388.308 517.96 387.893 517.485 387.596C517.01 387.299 512.558 387.151 504.129 387.151C495.7 387.151 491.248 387.329 490.773 387.685Z" fill="#929292" fill-rule="nonzero" opacity="1" stroke="none" vectornator:layerName="Curve 1"/>
</g>
</svg>
