<?xml version="1.0" encoding="UTF-8" standalone="no"?>
<!DOCTYPE svg PUBLIC "-//W3C//DTD SVG 1.1//EN" "http://www.w3.org/Graphics/SVG/1.1/DTD/svg11.dtd">
<!-- Created with Vectornator (http://vectornator.io/) -->
<svg height="100%" stroke-miterlimit="10" style="fill-rule:nonzero;clip-rule:evenodd;stroke-linecap:round;stroke-linejoin:round;" version="1.1" viewBox="478.453 345.361 80.0238 92.3057" width="100%" xml:space="preserve" xmlns="http://www.w3.org/2000/svg" xmlns:vectornator="http://vectornator.io" xmlns:xlink="http://www.w3.org/1999/xlink">
<defs/>
<clipPath id="ArtboardFrame">
<rect height="92.3057" width="80.0238" x="478.453" y="345.361"/>
</clipPath>
<g clip-path="url(#ArtboardFrame)" id="Layer" vectornator:layerName="Layer">
<path d="M480.851 345.937C480.148 346.32 479.572 346.896 479.124 347.664C478.676 348.431 478.453 363.016 478.453 391.418C478.453 419.819 478.58 434.308 478.836 434.884C479.092 435.46 479.412 435.939 479.796 436.323C480.18 436.707 480.659 437.027 481.235 437.283C481.811 437.539 494.221 437.667 518.464 437.667C542.708 437.667 555.118 437.539 555.694 437.283C556.27 437.027 556.749 436.707 557.133 436.323C557.517 435.939 557.837 435.46 558.093 434.884C558.348 434.308 558.476 419.851 558.476 391.514C558.476 363.176 558.348 348.719 558.093 348.143C557.837 347.568 557.485 347.056 557.037 346.608C556.589 346.16 556.142 345.841 555.694 345.649C555.246 345.457 542.836 345.361 518.464 345.361C494.093 345.361 481.555 345.553 480.851 345.937ZM518.464 348.431C542.197 348.431 554.255 348.559 554.638 348.815C555.022 349.071 555.214 350.958 555.214 354.476C555.214 356.235 555.214 357.995 555.214 359.754C554.606 359.434 553.999 359.114 553.391 358.794C552.176 358.154 550.768 357.835 549.169 357.835C547.57 357.835 546.163 358.154 544.947 358.794C543.732 359.434 542.836 360.073 542.261 360.713C541.685 361.353 541.237 361.993 540.917 362.632C540.597 363.272 540.342 364.295 540.15 365.703C539.958 367.11 539.958 368.421 540.15 369.637C540.342 370.852 540.757 372.419 541.397 374.338C542.037 376.257 542.676 377.793 543.316 378.944C543.636 379.52 543.956 380.095 544.276 380.671C543.06 380.671 541.845 380.671 540.629 380.671C538.199 380.671 536.152 380.959 534.488 381.535C532.825 382.11 531.29 383.102 529.883 384.509C528.475 385.917 527.548 387.132 527.1 388.155C526.652 389.179 526.365 390.042 526.237 390.746C526.109 391.45 526.045 392.217 526.045 393.049C526.045 393.881 526.205 394.904 526.524 396.119C526.844 397.335 527.292 398.422 527.868 399.382C528.443 400.341 529.051 401.141 529.691 401.781C530.331 402.42 531.29 403.092 532.569 403.796C533.849 404.499 535.736 405.043 538.231 405.427C540.725 405.811 542.325 406.194 543.028 406.578C543.732 406.962 544.435 407.538 545.139 408.305C545.843 409.073 546.418 410.032 546.866 411.184C547.314 412.335 547.538 413.519 547.538 414.734C547.538 415.949 547.442 416.941 547.25 417.709C547.058 418.476 546.706 419.34 546.195 420.299C545.683 421.259 544.947 422.218 543.988 423.178C543.028 424.137 541.845 424.937 540.437 425.577C539.03 426.216 535.832 426.568 530.842 426.632C528.348 426.664 525.853 426.696 523.358 426.728C523.774 425.928 524.19 425.129 524.605 424.329C525.437 422.73 526.173 420.619 526.812 417.996C527.452 415.374 527.676 413.327 527.484 411.855C527.292 410.384 526.876 409.137 526.237 408.113C525.597 407.09 524.957 406.322 524.318 405.811C523.678 405.299 523.006 404.883 522.303 404.563C521.599 404.243 520.607 404.019 519.328 403.891C518.049 403.764 517.121 403.764 516.545 403.891C515.97 404.019 515.266 404.275 514.435 404.659C513.603 405.043 512.867 405.523 512.228 406.098C511.588 406.674 511.044 407.314 510.596 408.017C510.149 408.721 509.797 409.521 509.541 410.416C509.285 411.312 509.189 412.431 509.253 413.775C509.317 415.118 509.669 416.909 510.309 419.148C510.948 421.387 511.652 423.242 512.42 424.713C513.187 426.184 514.051 427.368 515.01 428.263C515.97 429.159 516.641 429.671 517.025 429.798C517.409 429.926 520.863 429.99 527.388 429.99C533.913 429.99 537.815 429.83 539.094 429.511C540.373 429.191 541.589 428.711 542.74 428.071C543.892 427.432 545.043 426.536 546.195 425.385C547.346 424.233 548.306 422.89 549.073 421.355C549.841 419.819 550.321 418.572 550.512 417.613C550.704 416.653 550.8 415.662 550.8 414.638C550.8 413.615 550.672 412.591 550.416 411.568C550.161 410.544 549.745 409.521 549.169 408.497C548.593 407.474 547.73 406.45 546.578 405.427C545.427 404.403 544.212 403.636 542.932 403.124C541.653 402.612 540.182 402.292 538.518 402.164C536.855 402.036 535.448 401.685 534.297 401.109C533.145 400.533 532.122 399.638 531.226 398.422C530.331 397.207 529.787 396.279 529.595 395.64C529.403 395 529.307 394.136 529.307 393.049C529.307 391.961 529.595 390.746 530.171 389.403C530.746 388.059 531.514 386.972 532.473 386.14C533.433 385.309 534.392 384.733 535.352 384.413C536.312 384.093 539.062 383.902 543.604 383.838C548.146 383.774 550.864 383.454 551.76 382.878C552.655 382.302 553.455 381.503 554.159 380.479C554.51 379.967 554.862 379.456 555.214 378.944C555.214 388.091 555.214 397.239 555.214 406.386C555.214 424.681 555.118 433.924 554.926 434.116C554.734 434.308 542.58 434.404 518.464 434.404C494.349 434.404 482.195 434.308 482.003 434.116C481.811 433.924 481.683 419.819 481.619 391.802C481.555 363.784 481.747 349.551 482.195 349.103C482.642 348.655 494.732 348.431 518.464 348.431ZM488.432 356.875C487.92 357.387 487.664 357.899 487.664 358.41C487.664 358.922 487.92 359.434 488.432 359.946C488.943 360.457 496.396 360.713 510.788 360.713C525.181 360.713 532.633 360.425 533.145 359.85C533.657 359.274 533.849 358.666 533.721 358.027C533.593 357.387 533.305 356.907 532.857 356.587C532.409 356.267 525.021 356.107 510.692 356.107C496.364 356.107 488.943 356.363 488.432 356.875ZM488.623 372.035C488.112 372.419 487.824 372.931 487.76 373.571C487.696 374.21 487.824 374.754 488.144 375.202C488.464 375.65 488.815 375.938 489.199 376.065C489.583 376.193 496.747 376.257 510.692 376.257C524.637 376.257 531.866 376.161 532.378 375.97C532.889 375.778 533.273 375.458 533.529 375.01C533.785 374.562 533.849 374.018 533.721 373.379C533.593 372.739 533.305 372.259 532.857 371.94C532.409 371.62 525.053 371.46 510.788 371.46C496.523 371.46 489.135 371.652 488.623 372.035ZM488.623 387.388C488.112 387.772 487.824 388.283 487.76 388.923C487.696 389.563 487.824 390.106 488.144 390.554C488.464 391.002 488.783 391.29 489.103 391.418C489.423 391.546 494.061 391.61 503.016 391.61C511.972 391.61 516.673 391.514 517.121 391.322C517.569 391.13 517.921 390.778 518.177 390.266C518.433 389.755 518.496 389.211 518.369 388.635C518.241 388.059 517.921 387.612 517.409 387.292C516.897 386.972 512.1 386.812 503.016 386.812C493.933 386.812 489.135 387.004 488.623 387.388Z" fill="#929292" fill-rule="nonzero" opacity="1" stroke="none" vectornator:layerName="Curve 1"/>
</g>
</svg>
