<?xml version="1.0" encoding="UTF-8" standalone="no"?>
<!DOCTYPE svg PUBLIC "-//W3C//DTD SVG 1.1//EN" "http://www.w3.org/Graphics/SVG/1.1/DTD/svg11.dtd">
<!-- Created with Vectornator (http://vectornator.io/) -->
<svg height="100%" stroke-miterlimit="10" style="fill-rule:nonzero;clip-rule:evenodd;stroke-linecap:round;stroke-linejoin:round;" version="1.1" viewBox="578.142 348.591 97.6729 85.8453" width="100%" xml:space="preserve" xmlns="http://www.w3.org/2000/svg" xmlns:vectornator="http://vectornator.io" xmlns:xlink="http://www.w3.org/1999/xlink">
<defs/>
<clipPath id="ArtboardFrame">
<rect height="85.8453" width="97.6729" x="578.142" y="348.591"/>
</clipPath>
<g clip-path="url(#ArtboardFrame)" id="Layer" vectornator:layerName="Layer">
<path d="M578.523 348.973C578.269 349.227 578.142 363.407 578.142 391.514C578.142 419.62 578.269 433.8 578.523 434.055C578.778 434.309 594.929 434.436 626.978 434.436C659.027 434.436 675.179 434.309 675.433 434.055C675.688 433.8 675.815 423.817 675.815 404.104C675.815 384.392 675.624 374.376 675.242 374.058C674.861 373.741 674.479 373.613 674.098 373.677C673.716 373.741 673.43 373.9 673.239 374.154C673.049 374.408 672.921 375.68 672.858 377.969C672.826 379.114 672.794 380.258 672.763 381.403C670.219 378.828 667.675 376.252 665.132 373.677C660.045 368.526 658.073 365.347 659.218 364.139C660.363 362.93 662.938 362.326 666.944 362.326C668.947 362.326 670.95 362.326 672.953 362.326C672.953 363.28 672.953 364.234 672.953 365.188C672.953 367.095 673.049 368.176 673.239 368.431C673.43 368.685 673.812 368.812 674.384 368.812C674.956 368.812 675.338 368.685 675.529 368.431C675.719 368.176 675.815 364.933 675.815 358.702C675.815 352.47 675.688 349.227 675.433 348.973C675.179 348.718 659.027 348.591 626.978 348.591C594.929 348.591 578.778 348.718 578.523 348.973ZM581.003 351.453C596.328 351.453 611.653 351.453 626.978 351.453C642.303 351.453 657.628 351.453 672.953 351.453C672.953 352.788 672.953 354.123 672.953 355.459C672.953 356.794 672.953 358.129 672.953 359.465C657.628 359.465 642.303 359.465 626.978 359.465C611.653 359.465 596.328 359.465 581.003 359.465C581.003 358.129 581.003 356.794 581.003 355.459C581.003 354.123 581.003 352.788 581.003 351.453ZM585.391 354.123C585.137 354.25 584.946 354.568 584.819 355.077C584.692 355.586 584.723 355.999 584.914 356.317C585.105 356.635 585.423 356.826 585.868 356.889C586.313 356.953 586.663 356.921 586.917 356.794C587.172 356.667 587.362 356.349 587.489 355.84C587.617 355.331 587.553 354.918 587.299 354.6C587.044 354.282 586.726 354.091 586.345 354.028C585.963 353.964 585.645 353.996 585.391 354.123ZM590.446 354.219C590.128 354.409 589.938 354.759 589.874 355.268C589.81 355.777 589.874 356.158 590.065 356.412C590.256 356.667 590.574 356.826 591.019 356.889C591.464 356.953 591.845 356.858 592.163 356.603C592.481 356.349 592.672 356.095 592.736 355.84C592.799 355.586 592.704 355.236 592.449 354.791C592.195 354.346 591.877 354.091 591.496 354.028C591.114 353.964 590.764 354.028 590.446 354.219ZM595.597 354.219C595.279 354.409 595.088 354.759 595.025 355.268C594.961 355.777 595.025 356.158 595.216 356.412C595.406 356.667 595.724 356.826 596.169 356.889C596.615 356.953 596.996 356.858 597.314 356.603C597.632 356.349 597.791 355.967 597.791 355.459C597.791 354.95 597.696 354.6 597.505 354.409C597.314 354.219 597.028 354.091 596.646 354.028C596.265 353.964 595.915 354.028 595.597 354.219ZM581.003 362.326C585.55 362.326 590.097 362.326 594.643 362.326C599.19 362.326 603.736 362.326 608.283 362.326C603.768 366.936 599.253 371.547 594.739 376.157C590.224 380.767 585.709 385.377 581.194 389.988C581.162 385.377 581.131 380.767 581.099 376.157C581.067 371.547 581.035 366.936 581.003 362.326ZM615.055 362.422C615.85 362.453 616.645 362.485 617.44 362.517C616.55 363.407 615.659 364.298 614.769 365.188C612.989 366.968 611.844 367.795 611.335 367.668C610.827 367.541 610.064 367.509 609.046 367.572C608.537 367.604 608.029 367.636 607.52 367.668C608.378 366.778 609.237 365.887 610.095 364.997C611.812 363.217 613.466 362.358 615.055 362.422ZM634.418 362.326C638.679 362.326 642.939 362.326 647.2 362.326C647.2 362.39 647.2 362.453 647.2 362.517C647.2 362.644 640.841 369.067 628.123 381.785C621.764 388.143 615.405 394.502 609.046 400.861C606.916 398.667 604.786 396.474 602.655 394.28C600.525 392.086 598.395 389.892 596.265 387.698C596.996 387.031 597.727 386.363 598.459 385.695C599.19 385.028 599.921 384.36 600.652 383.692C601.034 384.614 601.415 385.536 601.797 386.458C602.56 388.302 603.609 390.242 604.945 392.277C606.28 394.312 607.425 395.456 608.378 395.711C609.332 395.965 610.223 395.87 611.049 395.424C611.876 394.979 613.084 393.358 614.674 390.56C616.264 387.762 617.345 385.6 617.917 384.074C618.489 382.548 618.871 381.308 619.061 380.354C619.252 379.4 619.348 378.478 619.348 377.588C619.348 376.697 619.252 375.871 619.061 375.108C618.871 374.345 618.521 373.518 618.012 372.628C617.504 371.737 616.868 370.911 616.105 370.148C615.723 369.766 615.342 369.385 614.96 369.003C616.073 367.89 617.186 366.778 618.298 365.665C620.524 363.439 625.897 362.326 634.418 362.326ZM654.163 362.326C655.021 362.326 655.88 362.326 656.738 362.326C656.325 362.74 655.911 363.153 655.498 363.566C654.671 364.393 654.194 364.933 654.067 365.188C653.94 365.442 653.908 365.76 653.972 366.142C654.036 366.523 657.215 369.862 663.51 376.157C669.806 382.452 672.953 386.458 672.953 388.175C672.953 389.034 672.953 389.892 672.953 390.751C669.392 387.19 665.831 383.629 662.27 380.068C655.148 372.946 651.333 369.353 650.824 369.289C650.316 369.226 643.766 375.489 631.175 388.08C618.585 400.671 612.321 407.22 612.385 407.729C612.448 408.238 616.295 412.339 623.926 420.033C627.741 423.881 631.557 427.728 635.372 431.575C634.545 431.575 633.719 431.575 632.892 431.575C631.239 431.575 626.978 428.109 620.111 421.178C613.243 414.247 609.587 410.781 609.142 410.781C608.696 410.781 605.008 414.247 598.077 421.178C591.146 428.109 586.917 431.575 585.391 431.575C584.628 431.575 583.865 431.575 583.102 431.575C584.66 430.017 586.218 428.459 587.776 426.901C590.891 423.785 592.481 421.973 592.545 421.464C592.608 420.955 592.481 420.542 592.163 420.224C591.845 419.906 591.464 419.779 591.019 419.843C590.574 419.906 588.793 421.496 585.677 424.612C584.119 426.17 582.561 427.728 581.003 429.286C581.003 424.898 581.003 420.51 581.003 416.123C581.003 407.347 582.434 401.593 585.296 398.858C588.157 396.124 591.718 396.887 595.979 401.147C600.239 405.408 601.225 408.746 598.936 411.163C596.646 413.579 595.533 415.073 595.597 415.646C595.661 416.218 595.883 416.6 596.265 416.79C596.646 416.981 596.964 417.045 597.219 416.981C597.473 416.918 598.999 415.487 601.797 412.689C604.595 409.891 605.994 408.238 605.994 407.729C605.994 407.22 603.355 404.327 598.077 399.049C592.799 393.771 589.874 391.164 589.302 391.228C588.729 391.291 587.203 392.563 584.723 395.043C583.483 396.283 582.243 397.523 581.003 398.763C581.003 398 581.003 397.237 581.003 396.474C581.003 394.948 583.102 392.054 587.299 387.794C591.496 383.533 594.58 380.449 596.551 378.542C597.537 377.588 598.522 376.634 599.508 375.68C599.508 376.475 599.508 377.27 599.508 378.065C599.508 379.654 598.395 381.53 596.169 383.692C593.944 385.854 592.799 387.126 592.736 387.508C592.672 387.889 595.216 390.751 600.366 396.092C605.517 401.434 608.378 404.168 608.951 404.295C609.523 404.422 616.772 397.459 630.698 383.406C644.624 369.353 652.446 362.326 654.163 362.326ZM609.237 370.529C610.254 370.529 611.113 370.656 611.812 370.911C612.512 371.165 613.243 371.642 614.006 372.342C614.769 373.041 615.342 373.836 615.723 374.726C616.105 375.616 616.295 376.57 616.295 377.588C616.295 378.605 616.136 379.718 615.818 380.926C615.5 382.134 614.865 383.756 613.911 385.791C612.957 387.826 612.035 389.542 611.145 390.941C610.254 392.34 609.587 392.976 609.142 392.849C608.696 392.722 607.743 391.355 606.28 388.748C604.818 386.14 603.832 384.106 603.323 382.643C602.814 381.18 602.497 380.004 602.369 379.114C602.242 378.224 602.242 377.333 602.369 376.443C602.497 375.553 602.751 374.758 603.132 374.058C603.514 373.359 603.991 372.755 604.563 372.246C605.135 371.737 605.803 371.324 606.566 371.006C607.329 370.688 608.22 370.529 609.237 370.529ZM650.443 372.818C654.194 376.507 657.946 380.195 661.698 383.883C669.202 391.259 672.953 401.052 672.953 413.261C672.953 419.366 672.953 425.47 672.953 431.575C667.389 431.575 661.825 431.575 656.261 431.575C645.133 431.575 635.626 427.601 627.741 419.652C623.799 415.678 619.856 411.703 615.914 407.729C621.669 401.911 627.423 396.092 633.178 390.274C638.933 384.455 644.688 378.637 650.443 372.818ZM607.806 373.486C607.234 373.677 606.693 374.027 606.185 374.535C605.676 375.044 605.326 375.521 605.135 375.966C604.945 376.411 604.849 376.984 604.849 377.683C604.849 378.383 604.976 379.018 605.231 379.591C605.485 380.163 605.867 380.672 606.375 381.117C606.884 381.562 607.679 381.848 608.76 381.975C609.841 382.103 610.795 381.912 611.622 381.403C612.448 380.894 612.989 380.386 613.243 379.877C613.497 379.368 613.656 378.796 613.72 378.16C613.784 377.524 613.688 376.856 613.434 376.157C613.179 375.457 612.862 374.917 612.48 374.535C612.098 374.154 611.717 373.868 611.335 373.677C610.954 373.486 610.413 373.359 609.714 373.295C609.014 373.232 608.378 373.295 607.806 373.486ZM609.332 376.252C609.777 376.252 610.127 376.379 610.382 376.634C610.636 376.888 610.763 377.238 610.763 377.683C610.763 378.128 610.668 378.478 610.477 378.732C610.286 378.987 610 379.146 609.618 379.209C609.237 379.273 608.855 379.177 608.474 378.923C608.092 378.669 607.902 378.287 607.902 377.778C607.902 377.27 608.029 376.888 608.283 376.634C608.537 376.379 608.887 376.252 609.332 376.252ZM637.184 395.615C636.866 395.933 636.739 400.893 636.803 410.495C636.866 420.097 637.057 424.993 637.375 425.184C637.693 425.375 642.589 425.439 652.064 425.375C661.539 425.311 666.404 425.089 666.658 424.707C666.912 424.326 667.008 419.429 666.944 410.018C666.881 400.607 666.722 395.774 666.467 395.52C666.213 395.265 661.348 395.138 651.873 395.138C642.399 395.138 637.502 395.297 637.184 395.615ZM639.569 398.191C643.639 398.191 647.708 398.191 651.778 398.191C655.848 398.191 659.918 398.191 663.987 398.191C663.987 402.228 663.987 406.266 663.987 410.304C663.987 414.342 663.987 418.38 663.987 422.418C659.918 422.418 655.848 422.418 651.778 422.418C647.708 422.418 643.639 422.418 639.569 422.418C639.569 418.38 639.569 414.342 639.569 410.304C639.569 406.266 639.569 402.228 639.569 398.191ZM643.003 402.864C642.748 403.182 642.621 403.5 642.621 403.818C642.621 404.136 642.748 404.454 643.003 404.772C643.257 405.09 645.356 405.249 649.298 405.249C653.241 405.249 655.339 405.122 655.593 404.867C655.848 404.613 655.975 404.232 655.975 403.723C655.975 403.214 655.88 402.864 655.689 402.674C655.498 402.483 653.4 402.387 649.393 402.387C645.387 402.387 643.257 402.546 643.003 402.864ZM643.003 409.35C642.748 409.668 642.621 409.986 642.621 410.304C642.621 410.622 642.748 410.94 643.003 411.258C643.257 411.576 645.356 411.735 649.298 411.735C653.241 411.735 655.339 411.608 655.593 411.354C655.848 411.099 655.975 410.718 655.975 410.209C655.975 409.7 655.88 409.35 655.689 409.16C655.498 408.969 653.4 408.874 649.393 408.874C645.387 408.874 643.257 409.033 643.003 409.35ZM608.855 414.406C611.749 417.267 614.642 420.129 617.535 422.99C620.429 425.852 623.322 428.713 626.215 431.575C620.492 431.575 614.769 431.575 609.046 431.575C603.323 431.575 597.6 431.575 591.877 431.575C594.707 428.713 597.537 425.852 600.366 422.99C603.196 420.129 606.026 417.267 608.855 414.406ZM643.003 415.837C642.748 416.154 642.621 416.472 642.621 416.79C642.621 417.108 642.748 417.426 643.003 417.744C643.257 418.062 644.72 418.221 647.39 418.221C650.061 418.221 651.524 418.094 651.778 417.84C652.032 417.585 652.16 417.204 652.16 416.695C652.16 416.186 652.064 415.837 651.873 415.646C651.683 415.455 650.22 415.36 647.486 415.36C644.751 415.36 643.257 415.519 643.003 415.837Z" fill="#929292" fill-rule="nonzero" opacity="1" stroke="none" vectornator:layerName="Curve 2"/>
</g>
</svg>
